<mxfile host="app.diagrams.net" modified="2023-09-18T03:42:09.938Z" agent="Mozilla/5.0 (Windows NT 10.0; Win64; x64) AppleWebKit/537.36 (KHTML, like Gecko) Chrome/116.0.0.0 Safari/537.36" version="21.7.5" etag="m0l6jT7vvZJYOnpUy3vj" type="github">
  <diagram name="Page-1" id="0FFTzKJPAZugB4q5itAU">
    <mxGraphModel>
      <root>
        <mxCell id="0" />
        <mxCell id="1" parent="0" />
      </root>
    </mxGraphModel>
  </diagram>
</mxfile>
